<?xml version="1.0" encoding="utf-8"?>
<!-- Generator: Adobe Illustrator 26.0.1, SVG Export Plug-In . SVG Version: 6.00 Build 0)  -->
<svg version="1.1" id="Layer_1" xmlns="http://www.w3.org/2000/svg" xmlns:xlink="http://www.w3.org/1999/xlink" x="0px" y="0px"
	 viewBox="0 0 595.3 841.9" style="enable-background:new 0 0 595.3 841.9;" xml:space="preserve">
<style type="text/css">
	.st0{fill:url(#SVGID_1_);}
	.st1{fill:url(#SVGID_00000060743726748163596360000007832556810925973406_);}
</style>
<g>
	<g>
		<g>
			<path d="M317,354c3.1-1.7,3.1-1.7,4.4-5.3c0.9-2.3,1.6-4.7,3-6.9c-2.6,0.4-5.1,0.9-7.5,1.7c-0.9,0.3-1.3,1.1-1.6,1.8
				c-0.9,1.9-1.7,3.7-2.5,5.6c-0.3,0.8-0.6,1.1-1.5,0.8c-2.6-0.8-5.4-1.3-6.4-4.6c-0.4-1.5-1.6-2.8-2.5-4c-0.8-1-1.4-2-2-3
				c-0.8-1.5-0.7-2.5,0.7-3.6c1.5-1.2,3.1-2.1,4.7-3.1c4.1-2.6,8.1-5.3,12.2-8c7.8-5.1,15.5-10.3,23.3-15.4
				c4.7-3.1,9.4-6.4,14.1-9.5c1-0.7,2-1.2,3.1-1.5c2.2-0.8,5.1,0.1,6.6,2.4c1.1,1.7,2.1,3.5,3.3,5.3c-19,12.2-37.6,24.8-56.8,36.9
				c1.4,0.4,2.7,0,3.8-0.3c7.7-2.6,15.7-4.2,23.5-6.3c12-3.3,24.1-6.5,36.1-9.8c1.4-0.4,1.5-0.4,1.9,1c1.4,5,2.8,10.1,4.2,15.1
				c1.8,6.6,3.7,13.3,5.5,19.9c0.8,3.1,1.5,6.2,2.3,9.5c-8.4-0.2-16.5-2-24.8-3.7c1.2-1,2.5-1,3.6-1.3c3.8-1.1,7.5-2.1,11.3-3.1
				c0.4-0.1,0.9-0.2,1.3-0.4c0.4-0.2,1.1-0.2,0.8-0.8c-0.2-0.6-0.8-0.2-1.2-0.1c-5,1.3-9.9,2.6-15.1,4c-0.6-2.4-1.2-4.7-1.8-7.1
				c-0.8-3.2-1.7-6.4-2.5-9.6c-0.4-1.6-0.3-1.6,1.2-2.1c4.3-1.2,8.5-2.4,12.8-3.7c0.7-0.2,1.7-0.2,2-1.2c-0.6-0.6-1.1-0.2-1.6,0
				c-15.7,4.3-31.5,8.6-47.2,13c-2,0.6-3.8,0.4-5.7-0.5C320.4,355.3,318.8,354.9,317,354z M341.2,337.2c-2.7,0.7-5,1.2-7.3,1.8
				c-0.6,0.1-1.1,0.4-1.4,1c-1.3,3.4-2.7,6.9-4.1,10.6c2.9-0.8,5.4-1.6,8-2.1c0.6-0.1,0.9-0.5,1.1-1.1
				C338.7,344.2,339.8,340.9,341.2,337.2z M346.6,307.7c3.9,1.4,7.4,2.6,10.9,3.8c0.5,0.2,0.9,0.2,1.3-0.1c2.3-1.5,4.7-3,7.3-4.7
				c-4-1.3-7.7-2.5-11.4-3.6c-0.6-0.2-1-0.1-1.5,0.2C351.1,304.8,349,306.2,346.6,307.7z M373.9,328.2c-2.5,0.7-4.7,1.4-6.9,1.9
				c-1.5,0.3-2.2,1.1-2.6,2.5c-0.9,2.5-1.8,5-2.7,7.5c-0.2,0.5-0.7,0.9-0.2,1.5c2.1-0.6,4.3-1.2,6.4-1.6c1.2-0.2,1.8-0.8,2.2-1.9
				C371.2,334.9,372.5,331.8,373.9,328.2z M357.3,332.8c-2.6,0.7-4.9,1.3-7.1,1.8c-1.2,0.3-1.9,0.9-2.2,2c-0.7,2.8-1.8,5.5-2.9,8.2
				c-0.1,0.4-0.6,0.8-0.1,1.2c1.6-0.4,3.1-1.1,4.7-1.2c2.8-0.2,4-1.7,4.8-4.3C355.1,338,356.2,335.6,357.3,332.8z M351.6,316.3
				c-2.6-0.9-5-1.5-7.3-2.6c-2.9-1.5-5.4-1.4-7.9,0.9c-1,1-2.5,1.3-3.4,2.6c1.8,0.6,3.5,1.1,5.2,1.6c1.7,0.6,3.3,1.2,5,1.7
				c0.7,0.2,1.4,0.5,2.2,0C347.3,319.1,349.3,317.8,351.6,316.3z M337.6,325.4c-2.6-0.9-4.8-1.5-7-2.3c-1.6-0.5-3.2-1.6-4.7-1.4
				c-1.5,0.2-2.9,1.6-4.2,2.6c-0.9,0.6-2,1-2.6,2.1c3.3,1.2,6.6,2.4,9.8,3.5c0.6,0.2,1.3,0.6,2,0.1
				C332.8,328.4,335.1,327.1,337.6,325.4z M304.4,335.2c3.7,1.5,7,2.8,10.3,4.2c0.7,0.3,1.3,0,1.9-0.3c2.1-1.3,4.1-2.6,6.3-4
				c-0.3-0.2-0.5-0.5-0.8-0.6c-3.2-1.1-6.5-2.2-9.7-3.4c-0.8-0.3-1.3,0.1-1.9,0.5C308.7,332.8,306.9,334,304.4,335.2z M306.2,344.3
				c0.6-0.4,1.1-0.9,1.1-1.6c0-0.7-0.5-0.9-1.1-0.8c-0.6,0.1-1.3,0.4-1.1,1.2C305.3,343.6,305.5,344.2,306.2,344.3z M307.8,345.9
				c-0.7,0-1,0.4-1.1,1c0,0.6,0.4,0.9,1.1,0.9c0.6,0,1.1-0.3,1.1-0.9C308.8,346.3,308.3,346,307.8,345.9z"/>
			<path d="M28.1,397.1c1.4-0.1,2,0.4,2.5,1.7c1.7,4.8,3.6,9.5,5.4,14.2c3.1,8,6.1,15.9,8.9,24c0.1,0.3,0.4,0.6,0.6,1
				c1.1-0.4,1-1.6,1.5-2.4c7.3-10.7,14.6-21.5,21.8-32.2c1.1-1.7,2.4-3.3,3.5-5c0.6-0.9,1.3-1.3,2.4-1.3c2.2,0.1,4.5,0,6.7,0
				c1.7,0,1.7,0,1.5,1.8c-0.6,4.9-1.3,9.7-2,14.6c-0.4,3-0.9,6.1-1.2,9.1c-0.1,1-0.3,1.8-1.2,2.4c-4.7,3.3-7.9,7.9-11.1,12.4
				c-0.3,0.4-0.6,0.7-1,1.3c2.7-7.8,3.5-15.6,4.3-23.4c-1.1,1.6-2.3,3.2-3.4,4.8c-4.4,6.3-8.7,12.7-13.1,19
				c-2.4,3.5-4.8,6.9-7.2,10.3c-0.6,0.9-1.3,1.4-2.5,1.3c-1.4-0.2-2.9,0.4-4.1-0.3c-1.1-0.7-1.1-2.2-1.5-3.4
				c-1.5-3.9-3-7.8-4.4-11.7c-1.1-3.1-2.6-6-3.7-9.1c-1.1-3.4-3.9-10.6-4.2-11.3c-0.5,3.3-1,6.2-1.4,9.1c-1.4,9.2-2.7,18.4-4,27.5
				c-0.2,1.3-0.4,2.6-0.5,3.9c-0.1,0.9-0.5,1.1-1.3,1.1c-2.8,0-5.7,0-8.7,0c0.4-3.1,0.8-6,1.3-8.9c2.1-13,4.2-26,6.3-39.1
				c0.5-3,1.5-9.1,1.5-9.1s0.4-1.8,0.5-2.2C20.5,397.4,25.6,397.2,28.1,397.1z"/>
			<path d="M179,415.6c-2.1,13.2-4.1,26.1-6.1,39c-0.3,2.1-0.4,2-2.4,2c-2.6,0-5.2,0-7.8,0c1.2-8.2,2.4-16.2,3.6-24.1
				c1.5-9.5,3-19.1,4.5-28.6c0.3-1.8,0.6-3.6,0.9-5.4c0.1-0.7,0.4-0.9,1-0.9c2.1,0.1,4.1,0.1,6.2,0.1c0.9,0,1.3,0.5,1.7,1.2
				c3.1,5,6.3,10,9.5,15c4.3,6.9,8.6,13.9,13,20.9c0.8,1.3,1.6,2.6,2.6,4.3c0.6-3.4,1.1-6.2,1.5-9.1c1.7-10.4,3.4-20.7,5-31.1
				c0.1-0.7,0.1-1.3,1.1-1.3c2.9,0,5.8,0,8.9,0c-0.6,3.9-1.1,7.6-1.7,11.4c-1.8,12-3.7,24-5.5,35.9c-0.5,3.5-1.2,7-1.7,10.5
				c-0.2,1.3-0.7,1.6-1.9,1.5c-1.7-0.2-3.5-0.1-5.3,0c-1.2,0-2-0.3-2.7-1.5c-3.5-5.9-7.2-11.8-10.8-17.7
				c-3.8-6.1-7.7-12.3-11.6-18.3C180.4,418.1,180.3,416.7,179,415.6z"/>
			<path d="M380,427.8c0.4,1.7-0.2,3.3-0.4,5c-0.8,5.6-1.8,11.2-2.6,16.8c-0.2,1.7-1.6,2.5-2.5,2.9c-1.5,0.7-2.8,1.6-4.3,2.2
				c-2.4,0.9-4.8,1.9-7.4,2.3c-5.1,0.9-10.2,1-15.3,0.1c-2.7-0.4-5.5-0.9-7.9-2.2c-3.6-2.1-6.9-4.5-9.3-8.1
				c-1.4-2.1-2.7-4.2-3.3-6.6c-1.1-4.2-1.4-8.5-0.9-12.8c0.1-0.8,0.2-1.7,0.3-2.5c0,0,0.1,0,0.1,0l-0.1-0.1c0.7-2.3,0.9-4.8,1.9-7.1
				c1.3-3.1,2.9-6,5.3-8.5c1.2-1.2,2.1-2.5,3.4-3.7c4.5-4.2,9.9-6.5,15.8-7.8c7.4-1.7,14.7-1.6,21.9,1.2c3.8,1.5,6.3,3,9.6,6.1
				c-2.2,2.2-4.4,4.3-6.6,6.6c-3.8-2.6-7.1-4.6-12.8-5.7c-1.9-0.4-3.1-0.3-6-0.2c-4.4,0.5-8.6,1.9-12.2,4.6
				c-8.3,6.3-11.2,14.7-9.3,24.9c1.2,6.7,6.9,12.2,14.2,13.1c4.9,0.6,9.6,0.4,14.2-1.3c2-0.7,2.8-1.9,3.2-3.9
				c0.8-4.8,1.7-9.6,2.4-14.5c0-0.4,0-0.8,0.4-1C374.2,428.1,377.1,427.9,380,427.8z"/>
			<path d="M434,448.1c0.4,0,0.7,0.2,0.8,0.6c0.1,0.6-0.3,1.2-0.3,1.8c-0.1,1.5-0.3,3-0.8,4.5c-0.3,1.1-0.9,1.7-2.1,1.6
				c-1.2-0.1-2.4,0.1-3.7,0.1c-11.3,0-22.5,0-33.8,0c-1.8,0-3.6,0-5.4,0c1.4-7,2.3-14.1,3.3-21.1c0,0,0-0.1,0-0.1
				c0.1-0.4,0.2-0.8,0.2-1.2c0,0,0-0.1,0-0.1c1.9-11.7,3.7-23.5,5.5-35.2c0.2-1,0.4-1.4,1.5-1.4c13.6,0,27.2,0,40.8,0.1
				c0.3,0,0.6,0.1,1,0.1c-0.3,2.3-0.6,4.6-1,6.8c-0.4,2.1,0,1.8-2.1,1.8c-6.5,0-13.1,0-19.6,0c-3.5,0-6.9,0-10.4,0
				c-1.1,0-1.4,0.3-1.5,1.4c-0.6,4.6-1.2,9.3-2.2,13.9c0,0.2,0,0.4,0,0.9h29c-0.3,2.1-0.5,3.9-0.7,5.8c0,0,0,0.1,0,0.1
				c-0.1,0.4-0.2,0.8-0.2,1.3c0,0,0,0,0,0c0,0.2-0.1,0.4-0.1,0.6c-0.1,0.3-0.5,0.5-0.8,0.5c-3.6,0-7.3-0.1-10.9-0.1
				c-5.1,0-10.2-0.2-15.3,0.1c-0.8,0-1.5-0.1-2.3,0.2c-0.8,5.4-1.6,10.7-2.5,16.1c0,0.3,0,0.6,0.1,0.9c0.7,0.5,1.5,0.3,2.2,0.3
				c5,0,10,0,14.9,0C423.4,448.1,428.7,448.1,434,448.1z"/>
			<path d="M278.9,442.4c-0.6,0.1-0.8,0.4-1.1,0.9c-2.2,4.1-4.6,8.2-6.8,12.3c-0.5,0.9-1,1-1.8,1c-2.7,0-5.4-0.1-8.1,0.2
				c-1.3,0.1-1.4-0.2-0.8-1.5c1.1-2.1,2.2-4.3,3.4-6.3c1.8-3.1,3.6-6.1,5.4-9.1c2-3.3,4-6.5,5.9-9.8c2.3-4,4.6-8.1,7-12.1
				c1.8-3.1,3.8-6.1,5.6-9.2c1.9-3.4,4-6.7,5.9-10.1c0.4-0.8,0.8-1.1,1.7-1.1c2.7,0.1,5.4,0.1,8.1,0c1.1,0,1.5,0.5,1.7,1.4
				c1.6,5.8,3.3,11.6,5,17.4c1.8,6,3.5,12,5.3,18.1c1.2,4.2,2.4,8.3,3.5,12.5c0.8,2.7,1.5,5.4,2.2,8.1c0.4,1.7,0.4,1.8-1.2,1.7
				c-2.4-0.1-4.8-0.2-7.1-0.1c-1.1,0.1-1.8-0.2-2-1.4c-0.4-2.6-2.9-10.8-3.7-12.3c-0.6-1-2.7-0.7-2.9-0.7
				c-5.8-0.1-11.6-0.1-17.4-0.1C284,442.2,281.4,442,278.9,442.4z M298.1,407.6c-5.5,9-10.2,17.9-15.4,26.8c7.6,0,14.9,0,22.4,0
				C302.8,425.5,300.6,416.8,298.1,407.6z"/>
			<path d="M151.9,406c5.5,8.9,6,18.2,2.7,27.8c-3,8.9-8.5,15.4-16.9,19.7c-7.6,3.9-15.4,4.8-23.7,3.6c-3.9-0.6-7.7-1.4-10.8-3.8
				c-2.3-1.7-4.5-3.3-6.2-5.7c-1.3-1.8-2.1-3.8-3.3-5.6c-0.9-1.4-0.8-3-1.1-4.5c-0.3-1.7-0.5-3.5-0.8-5.2c-0.1-0.8,0.2-1.3,1-1.5
				c2.9-0.8,5.7-1.6,8.6-2.4c0.9-0.3,1.2,0.1,1.2,1c0,2,0.1,4,0.6,5.9c1.8,7.1,6.4,11.4,13.5,12.8c14.3,2.7,26.8-6.4,29-20.7
				c0.7-4.4,0.5-8.7-1.5-12.8c-0.6-1.1,0.2-1.9,0.7-2C147.9,411.2,149.6,408.6,151.9,406z"/>
			<path d="M238.7,456.6c2.6-16.8,5.1-33.4,7.7-50.2c-6.4,0-12.8,0-19.4,0c0.4-2.9,0.8-5.5,1.3-8.2c0.1-0.4,0.3-0.7,0.8-0.7
				c0.5,0,0.9,0,1.4,0c15.2,0,30.4,0,45.6,0c0.8,0,1.5,0,2.4,0c-0.4,2.8-0.8,5.4-1.1,7.9c-0.1,0.7-0.4,0.9-1.1,0.9
				c-0.5,0-0.9,0-1.4,0c-5.5,0-11,0-16.6,0c-1.1,0-1.5,0.3-1.7,1.5c-1.8,12.1-3.6,24.1-5.4,36.2c-0.6,3.8-1.2,7.6-1.7,11.4
				c-0.1,1.1-0.6,1.3-1.6,1.3C244.8,456.5,241.8,456.6,238.7,456.6z"/>
			<path d="M328,357.4c10.2-2.8,20.5-5.5,30.8-8.4c1.5,5.8,3.1,11.4,4.3,17.1c0.3,1.3-0.1,1.8-1.5,1.9c-0.3,0-0.6,0.1-0.9,0
				c-2.3-0.4-4.6-0.8-6.8-1.4c-2-0.5-10.6-3-12.9-3.7c-3.7-1.2-7.4-2.5-11.1-3.8C329.1,358.8,328.1,358.6,328,357.4z"/>
			<linearGradient id="SVGID_1_" gradientUnits="userSpaceOnUse" x1="65.285" y1="467.4467" x2="573.1182" y2="377.9021">
				<stop  offset="0" style="stop-color:#9E7B2E"/>
				<stop  offset="2.328537e-02" style="stop-color:#AA8634"/>
				<stop  offset="6.526170e-02" style="stop-color:#C9A344"/>
				<stop  offset="0.1123" style="stop-color:#F4CB59"/>
				<stop  offset="0.1176" style="stop-color:#EEC556"/>
				<stop  offset="0.1496" style="stop-color:#CEA645"/>
				<stop  offset="0.1805" style="stop-color:#B79039"/>
				<stop  offset="0.2097" style="stop-color:#AA8332"/>
				<stop  offset="0.2353" style="stop-color:#A57E2F"/>
				<stop  offset="0.2553" style="stop-color:#AC8533"/>
				<stop  offset="0.2853" style="stop-color:#C1993E"/>
				<stop  offset="0.3215" style="stop-color:#E2BA50"/>
				<stop  offset="0.338" style="stop-color:#F4CB59"/>
				<stop  offset="0.4193" style="stop-color:#F1C958"/>
				<stop  offset="0.4712" style="stop-color:#E9C155"/>
				<stop  offset="0.5148" style="stop-color:#DAB44F"/>
				<stop  offset="0.5535" style="stop-color:#C5A247"/>
				<stop  offset="0.5892" style="stop-color:#AB8B3C"/>
				<stop  offset="0.5922" style="stop-color:#A8893B"/>
				<stop  offset="0.6199" style="stop-color:#AF8F3E"/>
				<stop  offset="0.661" style="stop-color:#C3A146"/>
				<stop  offset="0.7102" style="stop-color:#E4BD53"/>
				<stop  offset="0.7305" style="stop-color:#F4CB59"/>
				<stop  offset="1" style="stop-color:#F4CB59"/>
			</linearGradient>
			<path class="st0" d="M486.4,451.4c0.1,0,0.2,0.2,0,0.2c-2.5,0.5-4.9,0.6-7.4,0.6c-8.8,0-17.5,0.9-25.9,3.3
				c-4.4,1.2-8.5,3.2-12.5,5.4c-6.9,3.8-12.6,9-18,14.6c-3.1,3.3-8.4,8.3-11.8,11.3c-2.5,2.1-4.9,4.3-7.5,6.3
				c-11,8.4-23.1,14.5-36.5,17.8c-6.4,1.6-12.9,2.5-19.5,2.7c-8.4,0.3-16.7-0.3-25-1.8c-5.6-1-11.1-2.3-16.5-3.7
				C290,504,275,497.9,260,492c-14.7-5.8-29.4-11.5-44.9-15c-7.6-1.8-15.3-2.9-23.2-3.6c-7.8-0.6-15.7-0.4-23.4,0.6
				c-13.8,1.9-27,5.6-39.3,12.2c-0.5,0.3-2.6,1.5-2.7,1.6c-0.1,0.1-0.1,0.3,0.1,0.3c0.7-0.2,3.5-1.1,3.8-1.2c10.4-4.1,21-7.3,32-8.7
				c10.5-1.3,21.1-1.5,31.7-0.3c16.4,1.8,32,6.2,47.3,12c4.4,1.7,8.7,3.4,13,5.2c5.3,2.2,10.6,4.3,15.9,6.5
				c13.1,5.5,26.4,10.6,40.3,14.1c6.7,1.7,13.5,2.8,20.4,3.5c4.7,0.5,9.5,0.8,14.2,0.7c9.5-0.2,19-1.4,28.1-4.3
				c11.3-3.6,21.6-9.2,31-16.4c3.2-2.4,6.1-5.1,9.1-7.8c0.1-0.1,0.3,0,0.2,0.2c-0.4,0.6-0.9,1.2-1.4,1.8c-4.3,4.8-8.9,9.3-13.9,13.4
				c-3.3,2.6-6.6,5.1-10.2,7.1c-3.9,2.1-7.8,4.1-12,5.7c-5.8,2.3-11.6,4.1-17.7,5.2c-5.3,1-10.6,1.8-16,1.8c-4.9,0-9.8,0.1-14.7-0.1
				c-4.7-0.2-9.3-0.9-13.9-1.6c-2.8-0.4-5.7-0.5-8.5-1.2c-6.7-1.7-13.5-3.2-20.1-5.4c-4.8-1.6-9.7-3.2-14.5-4.9
				c-6.4-2.2-12.6-5-18.8-7.4c-5.9-2.3-11.8-5-17.7-7.3c-5.5-2.2-11-4.4-16.6-6.3c-4-1.3-8-2.6-12-3.7c-2.7-0.7-10.4-2.7-11.7-2.9
				c-3.3-0.9-6.6-1.5-10-2c-8.8-1.3-17.6-1.3-26.4-0.8c-5.6,0.3-11.1,1-16.6,2.5c-2.2,0.6-4.5,1-6.8,1.6c-1,0.3-2,0.7-3,1
				c-0.3,0.1-2,0.8-4.1,1.3c-3.1,0.6-7.1,0.7-7.4,0.5c-0.3-0.2,1.6-0.4,2.9-1.1c1.4-0.8,16.3-8.8,22.7-11.8c2.7-1.3,5.6-2.2,8.4-3.3
				c3.4-1.4,6.9-2.7,10.4-3.8c6.4-2.1,13-3.3,19.6-4.6c13.3-2.7,26.8-3,40.3-2.2c5.8,0.4,11.7,1.2,17.4,2.5c5.3,1.2,10.7,2,16,3.3
				c5.4,1.4,10.9,2.9,16.2,4.5c4.2,1.3,8.5,2.3,12.7,3.7c11.5,3.9,23.3,6.9,35,9.9c8.5,2.1,17,3.7,25.7,4.3
				c10.2,0.7,20.4,0.6,30.5-1.4c9.9-2,19.2-5.4,28.1-10.1c5.9-3.2,11.4-7,16.7-11.1c3.5-2.6,6.4-5.8,9.8-8.5c2.7-2.1,5.5-4,8.8-5.3
				c10-4.2,20.3-4.8,30.8-4c4.4,0.3,8.9,0.8,13.3,0.6C485.4,451.4,485.9,451.4,486.4,451.4z M447.2,364c-1.2,0.2-2.2,1-3.2,1.5
				c-15.3,6.9-31.3,10.6-48.1,11c-10.5,0.3-20.9-0.7-31.2-2.9c-6.3-1.4-12.6-2.8-18.8-4.7c-4.1-1.2-8.2-2.3-12.2-3.9
				c-9.4-3.8-18.9-7.2-28.4-10.8c-7.9-3-15.9-5.4-24-7.6c-12.2-3.3-24.6-5.3-37.2-5.6c-9.2-0.2-18.3,1-27.3,3.3
				c-7.3,1.8-14.3,4.5-20.9,7.9c-12.1,6.2-22.3,14.8-31.6,24.6c-3.5,3.7-6.7,7.8-10,11.6c-1.9,2.1-3.7,4.3-5.8,6.2
				c-1.6,1.5-3.3,2.9-5,4.3c-1.9,1.6-3.8,3.3-5.9,4.6c-7.4,4.7-15.3,8-23.8,10.1c-7.7,2-15.3,4-22.6,7.2
				c-6.4,2.8-11.9,6.9-16.9,11.6c-4.6,4.4-7.7,9.8-10.2,15.6c-0.7,1.6-1.4,3.3-1.4,5.2c0,0.3,0.4,0.4,0.5,0.1l0,0
				c0.2-0.4,0.6-1.2,0.8-1.7c2.1-5.1,5.2-9.6,9.3-13.3c5.6-5.1,12.2-8.2,19.2-10.8c7.4-2.7,15.1-3.9,22.7-5.5
				c6.5-1.4,12.9-3.2,18.9-6.4c1.8-0.9,3.4-2.1,5.1-3.2c3.8-2.3,7.2-5.2,9.9-8.6c3.3-4.1,6.3-8.4,10-12.2c2.2-2.3,4.6-4.4,7.1-6.5
				c4.2-3.5,8.7-6.7,13.6-9.2c5.2-2.7,10.6-5.1,16.3-7.1c4.2-1.4,8.4-2.4,12.6-3.4c3.6-0.9,7.2-1.2,10.9-1.6
				c8.8-0.8,17.6-0.6,26.4,0.4c3.8,0.4,7.5,1.1,11.3,1.9c4.9,1.1,9.8,2,14.7,3.2c3.6,0.8,7.1,1.9,10.7,2.8
				c9.4,2.2,18.5,5.4,27.9,7.6c4.5,1.1,9,2.3,13.5,3.2c2.9,0.6,5.8,1,8.7,1.6c9.9,1.8,19.9,2.7,30,2.9c11.5,0.3,23-1,34.3-3.3
				c4.2-0.8,8.4-1.5,12.4-2.8c10.1-3.2,20-6.9,29.4-11.9C441.8,368.2,447.3,364.4,447.2,364z M458.7,447.8
				c7.3-0.2,14.6,0.4,21.8,1.1c4.4,0.4,8.8,0.9,13.3,0.3c5.8-0.8,11.1-2.8,15.8-6.4c3.1-2.3,5.5-5.2,6.7-8.9
				c2.3-6.9,3.4-14,1.6-21.2c-2.2-8.9-7.8-14.6-16.5-17.4c-4.3-1.4-8.8-1.9-13.3-1.9c-8,0-16,0-23.9,0c-0.2,0-0.3,0-0.5,0
				c-1.1-0.1-1.5,0.5-1.6,1.5c0,0.3,0,0.6-0.1,0.8c-1.3,9-2.7,18.1-4,27.1c-0.8,5.8-1.6,11.7-2.5,17.5c-0.4,2.4-0.4,4.9-1.5,7.4
				c0,0.1,0,0.1,0.1,0.2C455.7,448.4,457.2,447.8,458.7,447.8z M489.8,403c4.3,0.1,8.2,1.3,11.7,4.1c2.7,2.2,4.4,4.9,5.2,8.2
				c2.1,9,0.3,17.2-5.9,24.2c-4.2,4.7-9.7,7.1-15.9,7.9c-6,0.8-12-0.2-17.9-0.1c-1.2,0-1.3-0.2-1.1-1.9c0.8-5.3,1.5-10.6,2.3-15.9
				c1.2-8.1,2.4-16.2,3.6-24.3c0.3-2.2,0.4-2.1,2.4-2.1C476.9,402.9,487.4,403,489.8,403z M549.7,414.1c-2.6,3-15.6,17.6-19.5,21.5
				c-1.6,1.6-3.2,3.2-4.7,4.9c-2.3,2.4-4.1,5.1-6.5,7.3c-0.8,0.8-1.1,1.8-1.1,2.9c0,1.4,0.1,2.9-0.4,4.3c-0.6,1.8-0.6,1.8,1.3,1.8
				c0.3,0,0.6,0,0.9,0c15.7,0,31.3-0.1,47-0.1c0.4,0,0.8,0,1.2,0c0.9,0,1.3-0.4,1.2-1.7c-0.1-1.7,0.2-3.4,0.7-5
				c0.6-1.8,0.3-2.6-1.1-2.5c-0.5,0-0.9,0-1.4,0c-10.8-0.1-21.6-0.1-32.5-0.2c-0.7,0-1.4,0.2-2.1-0.2c0.1-0.2,0.1-0.4,0.3-0.6
				c4.6-4.7,9-9.7,13.3-14.6c2.3-2.6,4.6-5.2,6.9-7.7c3.4-3.7,6.6-7.5,10-11.1c3.2-3.3,6-7,9.5-10c2.4-2.1,3.2-4.7,3.3-7.7
				c0-2.3,0-2.4-2.2-2.4c-15,0-29.9,0-44.9,0c-2,0-2.2,0.3-2.3,2.5c-0.1,1.3-0.4,2.6-0.8,3.8c-0.2,0.5-0.1,1-0.2,1.6
				c-0.1,0.8,0.3,1.1,1.1,1.1c0.4,0,0.8,0,1.2,0c10.3,0.1,20.6,0.2,30.9,0.3c0.4,0,0.9-0.2,1.4,0.4
				C556.4,406.5,553,410.2,549.7,414.1z M172.4,362.1c3.5-3.3,7.1-6.5,11.2-9.2c11.4-7.7,23.9-13.1,37.5-15.7
				c4.9-0.9,9.8-1.7,14.8-1.9c5.5-0.2,11-0.3,16.5,0.3c5.1,0.6,10.2,1.2,15.2,2.2c10.4,2,20.4,5.3,30.4,8.7c1.5,0.5,2.9,1.2,4.7,1.4
				c-0.2-1.4-1.1-2.2-1.8-3c-1.1-1.3-2.2-2.6-3.1-4c-0.8-1.2-0.9-2.4-0.4-3.7c0.2-0.6,0.6-1.2,0.8-1.8c-0.3-0.4-0.6-0.5-1-0.5
				c-2.7-0.6-5.5-1.2-8.2-1.8c-3.9-0.9-7.8-1.9-11.8-2.6c-6.4-1.2-12.8-2.1-19.3-2.4c-7.8-0.3-15.6-0.3-23.4,0.7
				c-7.7,0.9-15.1,2.7-22.4,5.1c-8.8,2.8-16.8,7.1-24.4,12.5c-6.4,4.6-11.9,10.1-17.1,16c0,0,0,0,0,0c-0.3,0.3,0.1,0.8,0.5,0.6
				C171.6,362.8,172.1,362.4,172.4,362.1z M107.8,412c2.4-0.5,4.7-1.4,6.6-2.9c2.4-1.9,5.2-3,8.2-3.2c3.3-0.2,6.3-1.2,9-3
				c2-1.3,4-2.5,6-3.8c0.5-0.3,1.1-0.5,1.2-1.3c-18.1-5.4-38.1,4.2-43,17.9C100,414.1,103.8,412.8,107.8,412z M456.4,357.1
				c-4.6,2.5-9.5,3.9-14.5,5.3c-6.7,1.9-13.6,3.2-20.5,3.6c-8.4,0.5-16.9,0.5-25.3-0.2c-1.9-0.2-3.8-0.1-5.8-0.4
				c-0.5-0.1-0.9,0.3-0.9,0.8c0.1,1.8,0.8,3.2,1.1,4.8c0.3,1.4,1,1.6,2.3,1.6c4.3,0.1,8.6-0.1,12.9-0.4c5.6-0.3,11.1-1,16.6-2.1
				c10.8-2.1,21.1-5.8,31-10.6C454.9,358.7,456.8,356.8,456.4,357.1z M452.4,460.2c8,0,15.9,0,23.9,0c6,0,12-0.3,17.8-2
				c3-0.9,6-1.8,8.7-3.3c4.1-2.3,7.5-5.4,10.2-9.3c1.4-2,2.8-3.9,3.7-6.2c0.1-0.2-0.1-0.3-0.3-0.2c-1.8,2-3.7,3.9-5.8,5.6
				c-6.1,5-13.3,7.7-21,9.2c-5,1-10.2,1.2-15.3,1.3c-7.4,0.3-14.6,1.7-21.6,3.9c-0.4,0.1-1,0.3-1,0.6
				C451.9,460.2,452.2,460.2,452.4,460.2z"/>
			<path d="M78,438c0,2.9-0.5,5.3-0.8,7.6c-0.4,3.1-0.8,6.2-1.2,9.3c-0.2,1.6-0.2,1.6-1.8,1.6c-2.8,0-5.7,0-8.8,0
				C66.4,448.2,72.1,443.4,78,438z"/>
			
				<linearGradient id="SVGID_00000080184678258464052710000011057159834909070464_" gradientUnits="userSpaceOnUse" x1="326.1457" y1="424.874" x2="326.3429" y2="424.874">
				<stop  offset="0" style="stop-color:#FFFFFF"/>
				<stop  offset="0.3547" style="stop-color:#000000"/>
				<stop  offset="0.6564" style="stop-color:#C3913B"/>
				<stop  offset="0.8324" style="stop-color:#D6A443"/>
				<stop  offset="1" style="stop-color:#D6A443"/>
			</linearGradient>
			<polygon style="fill:url(#SVGID_00000080184678258464052710000011057159834909070464_);" points="326.2,424.8 326.3,424.9 
				326.2,424.9 326.1,424.9 			"/>
		</g>
	</g>
</g>
</svg>
